<svg width="60" height="60" viewBox="0 0 60 60" fill="none" xmlns="http://www.w3.org/2000/svg">
<path d="M49.6875 29.625V2.8125" stroke="#455A64" stroke-width="1.875" stroke-miterlimit="10" stroke-linecap="round" stroke-linejoin="round"/>
<path d="M49.6875 2.8125H10.3125V29.625" stroke="#455A64" stroke-width="1.875" stroke-miterlimit="10" stroke-linecap="round" stroke-linejoin="round"/>
<path d="M39.375 37.7081L55.3125 25.3125V57.1875H4.6875V25.3125L20.7262 37.7869" stroke="#455A64" stroke-width="1.875" stroke-miterlimit="10" stroke-linecap="round" stroke-linejoin="round"/>
<path d="M4.6875 54.375L30 36.5625L55.3125 54.375" stroke="#455A64" stroke-width="1.875" stroke-miterlimit="10" stroke-linecap="round" stroke-linejoin="round"/>
<path d="M49.6781 20.7225L55.3125 25.3125" stroke="#455A64" stroke-width="1.875" stroke-miterlimit="10" stroke-linecap="round" stroke-linejoin="round"/>
<path d="M4.6875 25.3125L10.3125 20.73" stroke="#455A64" stroke-width="1.875" stroke-miterlimit="10" stroke-linecap="round" stroke-linejoin="round"/>
<path d="M39.3225 17.775C39.3562 18.0956 39.3731 18.42 39.3731 18.75C39.3731 23.9288 35.175 28.125 29.9981 28.125C24.8212 28.125 20.6231 23.9288 20.6231 18.75C20.6231 13.5731 24.8212 9.375 29.9981 9.375C31.7231 9.375 33.3375 9.84188 34.7269 10.6538" stroke="#455A64" stroke-width="1.875" stroke-miterlimit="10" stroke-linecap="round" stroke-linejoin="round"/>
<path d="M38.9813 12.1519L29.9981 21.135L25.6688 16.8094" stroke="#455A64" stroke-width="1.875" stroke-miterlimit="10" stroke-linecap="round" stroke-linejoin="round"/>
<path d="M49.6875 29.625V2.8125" stroke="#263238" stroke-width="1.875" stroke-miterlimit="10" stroke-linecap="round" stroke-linejoin="round"/>
<path d="M49.6875 2.8125H10.3125V29.625" stroke="#263238" stroke-width="1.875" stroke-miterlimit="10" stroke-linecap="round" stroke-linejoin="round"/>
<path d="M39.375 37.7081L55.3125 25.3125V57.1875H4.6875V25.3125L20.7262 37.7869" stroke="#263238" stroke-width="1.875" stroke-miterlimit="10" stroke-linecap="round" stroke-linejoin="round"/>
<path d="M4.6875 54.375L30 36.5625L55.3125 54.375" stroke="#263238" stroke-width="1.875" stroke-miterlimit="10" stroke-linecap="round" stroke-linejoin="round"/>
<path d="M49.6781 20.7225L55.3125 25.3125" stroke="#263238" stroke-width="1.875" stroke-miterlimit="10" stroke-linecap="round" stroke-linejoin="round"/>
<path d="M4.6875 25.3125L10.3125 20.73" stroke="#263238" stroke-width="1.875" stroke-miterlimit="10" stroke-linecap="round" stroke-linejoin="round"/>
<path d="M39.3225 17.775C39.3562 18.0956 39.3731 18.42 39.3731 18.75C39.3731 23.9288 35.175 28.125 29.9981 28.125C24.8212 28.125 20.6231 23.9288 20.6231 18.75C20.6231 13.5731 24.8212 9.375 29.9981 9.375C31.7231 9.375 33.3375 9.84188 34.7269 10.6538" stroke="#263238" stroke-width="1.875" stroke-miterlimit="10" stroke-linecap="round" stroke-linejoin="round"/>
<path d="M38.9813 12.1519L29.9981 21.135L25.6688 16.8094" stroke="#263238" stroke-width="1.875" stroke-miterlimit="10" stroke-linecap="round" stroke-linejoin="round"/>
</svg>
