<svg width="320" height="286" viewBox="0 0 320 286" fill="none" xmlns="http://www.w3.org/2000/svg">
<g clip-path="url(#clip0_13_240)">
<path d="M65.2931 265.548C65.2377 271.856 64.7757 278.155 63.9097 284.403C63.8794 284.623 63.8464 284.842 63.816 285.062L4.7387 284.732C4.56524 284.514 4.3945 284.293 4.22908 284.07C3.67753 283.331 3.16057 282.572 2.68604 281.786C0.405153 278 -0.639062 273.567 0.407344 270.509L0.426095 270.462C0.651973 269.792 1.0079 269.174 1.47345 268.642C3.85924 265.956 8.68305 266.404 13.0606 268.572C9.13422 264.274 6.00783 258.851 5.77028 254.01C5.53736 249.288 8.00632 245.915 10.6842 243.049C10.7721 242.954 10.8599 242.862 10.9478 242.77C10.9904 242.722 11.0356 242.677 11.0781 242.63C13.1675 240.446 15.6033 238.292 19.1289 238.553C22.9956 238.839 27.2826 242.078 30.2885 245.852C33.2944 249.623 35.2919 253.907 37.3166 258.089C39.3438 262.268 41.5372 266.553 44.7903 270.125C40.3842 264.552 36.8316 258.211 35.5194 252.043C34.2071 245.876 35.362 239.953 39.2889 237.049C40.4811 236.194 41.8606 235.637 43.312 235.425C43.4814 235.397 43.6535 235.374 43.8283 235.354C47.4635 234.94 51.8038 236.198 55.4967 239.203C59.5636 242.512 62.3832 247.417 63.7861 252.074C65.1888 256.731 65.3383 261.214 65.2931 265.548Z" fill="#F2F2F2"/>
<path d="M26.6413 284.854L25.5116 284.848C25.1529 284.624 24.7925 284.402 24.4304 284.183C24.2063 284.041 23.9795 283.905 23.7527 283.766C20.0055 281.478 16.235 279.283 12.441 277.181C8.65046 275.077 4.84086 273.071 1.01222 271.161C0.910735 271.117 0.827948 271.038 0.778229 270.939C0.728509 270.841 0.715004 270.727 0.740068 270.62C0.744172 270.605 0.750526 270.592 0.758894 270.58C0.812295 270.48 0.931656 270.438 1.10585 270.524C1.57546 270.759 2.04779 270.995 2.51737 271.235C6.35648 273.178 10.1791 275.217 13.9853 277.353C17.7888 279.489 21.5707 281.719 25.3308 284.042C25.4099 284.09 25.4891 284.141 25.5681 284.189C25.9267 284.411 26.2827 284.632 26.6413 284.854Z" fill="white"/>
<path d="M41.207 284.935L40.5084 284.932C40.3509 284.711 40.196 284.491 40.0385 284.27C36.3367 279.079 32.6358 273.888 28.9357 268.697C22.8762 260.199 16.8186 251.701 10.7628 243.202C10.7269 243.157 10.7002 243.104 10.6842 243.049C10.6324 242.86 10.7706 242.75 10.9478 242.77C11.0225 242.78 11.094 242.807 11.1577 242.847C11.2213 242.888 11.2756 242.941 11.3169 243.004C14.7141 247.77 18.1105 252.534 21.506 257.297C27.5339 265.753 33.5609 274.207 39.5871 282.661C39.9704 283.198 40.3537 283.737 40.737 284.274C40.8946 284.495 41.0521 284.715 41.207 284.935Z" fill="white"/>
<path d="M56.7694 280.879C56.7337 282.056 56.6558 283.215 56.5541 284.362C56.5344 284.582 56.5146 284.801 56.4948 285.021L55.7619 285.017C55.7843 284.797 55.8067 284.578 55.8264 284.358C55.9813 282.7 56.0912 281.023 56.1061 279.301C56.1256 274.525 55.6602 269.76 54.7171 265.079C53.7146 260.038 52.2752 255.094 50.4152 250.304C48.463 245.251 46.1093 240.362 43.3767 235.685C43.3252 235.609 43.3023 235.517 43.312 235.425C43.3422 235.216 43.6204 235.154 43.8283 235.354C43.8694 235.393 43.9047 235.438 43.9334 235.487C44.2714 236.068 44.6034 236.651 44.9291 237.236C47.561 241.939 49.8137 246.845 51.6658 251.906C53.43 256.713 54.7719 261.664 55.6764 266.704C56.5236 271.379 56.8898 276.129 56.7694 280.879Z" fill="white"/>
<path d="M215.493 9.317C215.493 7.47427 216.039 5.67293 217.063 4.14075C218.087 2.60858 219.542 1.4144 221.244 0.709217C222.947 0.00403618 224.82 -0.18047 226.627 0.179028C228.435 0.538526 230.095 1.42588 231.398 2.72889C232.701 4.03189 233.588 5.69202 233.948 7.49934C234.307 9.30666 234.123 11.18 233.417 12.8825C232.712 14.5849 231.518 16.04 229.986 17.0638C228.454 18.0876 226.652 18.634 224.81 18.634C222.339 18.6312 219.971 17.6487 218.225 15.902C216.478 14.1553 215.495 11.7872 215.493 9.317ZM233.146 9.317C233.146 7.66824 232.657 6.05651 231.741 4.68562C230.825 3.31473 229.523 2.24625 228 1.61529C226.476 0.984342 224.8 0.81926 223.183 1.14092C221.566 1.46257 220.081 2.25653 218.915 3.42237C217.749 4.58822 216.955 6.07359 216.633 7.69067C216.312 9.30775 216.477 10.9839 217.108 12.5071C217.739 14.0304 218.807 15.3323 220.178 16.2483C221.549 17.1643 223.161 17.6533 224.81 17.6533C227.02 17.6508 229.139 16.7717 230.701 15.2089C232.264 13.6461 233.143 11.5271 233.146 9.317Z" fill="#CCCCCC"/>
<path d="M224.81 14.711C227.789 14.711 230.204 12.296 230.204 9.31699C230.204 6.33794 227.789 3.92294 224.81 3.92294C221.831 3.92294 219.416 6.33794 219.416 9.31699C219.416 12.296 221.831 14.711 224.81 14.711Z" fill="#E3FDFD"/>
<path d="M193.426 18.1436C198.301 18.1436 202.253 14.1918 202.253 9.317C202.253 4.44219 198.301 0.490372 193.426 0.490372C188.551 0.490372 184.599 4.44219 184.599 9.317C184.599 14.1918 188.551 18.1436 193.426 18.1436Z" fill="#CCCCCC"/>
<path d="M162.042 18.1436C166.917 18.1436 170.869 14.1918 170.869 9.317C170.869 4.44219 166.917 0.490372 162.042 0.490372C157.168 0.490372 153.216 4.44219 153.216 9.317C153.216 14.1918 157.168 18.1436 162.042 18.1436Z" fill="#CCCCCC"/>
<path d="M311.114 169.667H86.0354C83.8252 169.665 81.7063 168.786 80.1435 167.223C78.5807 165.66 77.7016 163.541 77.6991 161.331V43.1524C77.7016 40.9422 78.5807 38.8233 80.1435 37.2605C81.7063 35.6977 83.8252 34.8186 86.0354 34.8161H311.114C313.325 34.8186 315.443 35.6977 317.006 37.2605C318.569 38.8233 319.448 40.9422 319.451 43.1524V161.331C319.448 163.541 318.569 165.66 317.006 167.223C315.443 168.786 313.325 169.665 311.114 169.667ZM86.0354 35.7969C84.0853 35.7991 82.2156 36.5747 80.8367 37.9537C79.4577 39.3326 78.6821 41.2023 78.6799 43.1524V161.331C78.6821 163.281 79.4577 165.151 80.8367 166.53C82.2156 167.909 84.0853 168.684 86.0354 168.687H311.114C313.064 168.684 314.934 167.909 316.313 166.53C317.692 165.151 318.468 163.281 318.47 161.331V43.1524C318.468 41.2023 317.692 39.3326 316.313 37.9537C314.934 36.5747 313.064 35.7991 311.114 35.7969H86.0354Z" fill="#3F3D56"/>
<path d="M162.533 138.284H104.669C102.459 138.281 100.34 137.402 98.7775 135.839C97.2147 134.277 96.3356 132.158 96.3331 129.948V72.0841C96.3356 69.874 97.2147 67.7551 98.7775 66.1923C100.34 64.6294 102.459 63.7504 104.669 63.7479H162.533C164.743 63.7504 166.862 64.6294 168.425 66.1923C169.988 67.7551 170.867 69.874 170.869 72.0841V129.948C170.867 132.158 169.988 134.277 168.425 135.839C166.862 137.402 164.743 138.281 162.533 138.284ZM104.669 64.7286C102.719 64.7308 100.85 65.5065 99.4707 66.8854C98.0917 68.2644 97.3161 70.134 97.3139 72.0841V129.948C97.3161 131.898 98.0917 133.767 99.4707 135.146C100.85 136.525 102.719 137.301 104.669 137.303H162.533C164.483 137.301 166.353 136.525 167.731 135.146C169.11 133.767 169.886 131.898 169.888 129.948V72.0841C169.886 70.134 169.11 68.2644 167.731 66.8854C166.353 65.5065 164.483 64.7308 162.533 64.7286H104.669Z" fill="#CCCCCC"/>
<path d="M305.224 95.1314H193.911C192.87 95.1314 191.872 94.7181 191.137 93.9824C190.401 93.2467 189.988 92.2489 189.988 91.2085C189.988 90.168 190.401 89.1702 191.137 88.4345C191.872 87.6988 192.87 87.2855 193.911 87.2855H305.224C306.265 87.2855 307.262 87.6988 307.998 88.4345C308.734 89.1702 309.147 90.168 309.147 91.2085C309.147 92.2489 308.734 93.2467 307.998 93.9824C307.262 94.7181 306.265 95.1314 305.224 95.1314Z" fill="#CCCCCC"/>
<path d="M248.832 78.4589H193.911C192.87 78.4589 191.872 78.0456 191.137 77.3099C190.401 76.5742 189.988 75.5764 189.988 74.536C189.988 73.4955 190.401 72.4977 191.137 71.762C191.872 71.0263 192.87 70.613 193.911 70.613H248.832C249.872 70.613 250.87 71.0263 251.606 71.762C252.341 72.4977 252.755 73.4955 252.755 74.536C252.755 75.5764 252.341 76.5742 251.606 77.3099C250.87 78.0456 249.872 78.4589 248.832 78.4589Z" fill="#CCCCCC"/>
<path d="M305.224 127.986H193.911C192.87 127.986 191.872 127.573 191.137 126.837C190.401 126.101 189.988 125.104 189.988 124.063C189.988 123.023 190.401 122.025 191.137 121.289C191.872 120.554 192.87 120.14 193.911 120.14H305.224C306.265 120.14 307.262 120.554 307.998 121.289C308.734 122.025 309.147 123.023 309.147 124.063C309.147 125.104 308.734 126.101 307.998 126.837C307.262 127.573 306.265 127.986 305.224 127.986Z" fill="#CCCCCC"/>
<path d="M248.832 111.314H193.911C192.87 111.314 191.872 110.9 191.137 110.165C190.401 109.429 189.988 108.431 189.988 107.391C189.988 106.35 190.401 105.352 191.137 104.617C191.872 103.881 192.87 103.468 193.911 103.468H248.832C249.872 103.468 250.87 103.881 251.606 104.617C252.341 105.352 252.755 106.35 252.755 107.391C252.755 108.431 252.341 109.429 251.606 110.165C250.87 110.9 249.872 111.314 248.832 111.314Z" fill="#CCCCCC"/>
<path d="M168.204 135.857C168.139 135.857 168.074 135.844 168.014 135.819C167.954 135.794 167.9 135.757 167.855 135.711L99.3907 66.3245C99.3455 66.2786 99.3098 66.2243 99.2855 66.1647C99.2613 66.105 99.2491 66.0412 99.2495 65.9768C99.2499 65.9124 99.263 65.8487 99.2881 65.7894C99.3131 65.7301 99.3496 65.6763 99.3955 65.6311C99.4413 65.5859 99.4956 65.5501 99.5552 65.5259C99.6149 65.5017 99.6787 65.4894 99.7431 65.4899C99.8075 65.4903 99.8712 65.5034 99.9305 65.5285C99.9898 65.5535 100.044 65.59 100.089 65.6358L168.553 135.022C168.621 135.091 168.667 135.178 168.685 135.273C168.703 135.368 168.693 135.467 168.656 135.556C168.619 135.645 168.556 135.721 168.475 135.775C168.395 135.828 168.3 135.857 168.204 135.857Z" fill="#CCCCCC"/>
<path d="M98.9986 135.857C98.9019 135.857 98.8074 135.828 98.7268 135.775C98.6463 135.721 98.5835 135.645 98.5462 135.556C98.5089 135.467 98.4988 135.368 98.5172 135.273C98.5356 135.178 98.5816 135.091 98.6496 135.022L167.111 65.6358C167.156 65.5899 167.21 65.5533 167.27 65.5281C167.329 65.503 167.393 65.4898 167.457 65.4893C167.522 65.4888 167.585 65.501 167.645 65.5252C167.705 65.5495 167.759 65.5852 167.805 65.6305C167.851 65.6758 167.888 65.7296 167.913 65.789C167.938 65.8484 167.951 65.9121 167.951 65.9766C167.952 66.0411 167.939 66.1049 167.915 66.1646C167.891 66.2243 167.855 66.2786 167.809 66.3245L99.3477 135.711C99.3021 135.757 99.2478 135.794 99.1879 135.819C99.1279 135.844 99.0636 135.857 98.9986 135.857Z" fill="#CCCCCC"/>
<path d="M301.797 155.202H270.414C268.398 155.202 266.465 154.401 265.039 152.975C263.614 151.55 262.813 149.617 262.813 147.601C262.813 145.585 263.614 143.652 265.039 142.226C266.465 140.801 268.398 140 270.414 140H301.797C303.813 140 305.746 140.801 307.172 142.226C308.597 143.652 309.398 145.585 309.398 147.601C309.398 149.617 308.597 151.55 307.172 152.975C305.746 154.401 303.813 155.202 301.797 155.202Z" fill="#E3FDFD"/>
<path d="M4.09757 285.014H151.698C151.828 285.014 151.953 284.962 152.045 284.87C152.137 284.778 152.189 284.654 152.189 284.524C152.189 284.394 152.137 284.269 152.045 284.177C151.953 284.085 151.828 284.033 151.698 284.033H4.09757C3.96752 284.033 3.84278 284.085 3.75082 284.177C3.65886 284.269 3.6072 284.394 3.6072 284.524C3.6072 284.654 3.65886 284.778 3.75082 284.87C3.84278 284.962 3.96752 285.014 4.09757 285.014Z" fill="#3F3D56"/>
<path d="M96.2514 279.399L102.263 279.398L105.123 256.21L96.2504 256.21L96.2514 279.399Z" fill="#A0616A"/>
<path d="M113.858 284.98L94.9633 284.981L94.963 277.681L106.557 277.68C108.493 277.68 110.35 278.449 111.719 279.818C113.088 281.187 113.857 283.044 113.858 284.98Z" fill="#2F2E41"/>
<path d="M52.6307 272.588L58.0988 275.086L70.3355 255.182L62.2645 251.496L52.6307 272.588Z" fill="#A0616A"/>
<path d="M66.3259 284.981L49.1395 277.131L52.1724 270.491L62.7186 275.308C64.4797 276.112 65.8491 277.583 66.5256 279.397C67.2021 281.211 67.1302 283.22 66.3259 284.981Z" fill="#2F2E41"/>
<path d="M70.1379 201.212C69.5619 200.779 69.088 200.224 68.7495 199.588C68.411 198.952 68.2161 198.249 68.1787 197.529C68.1412 196.809 68.2621 196.089 68.5327 195.421C68.8034 194.753 69.2172 194.152 69.7451 193.662L62.6781 177.627L71.6561 179.148L76.9906 194.142C77.7565 195.083 78.1505 196.273 78.0978 197.486C78.0451 198.698 77.5495 199.849 76.7048 200.721C75.8601 201.592 74.7251 202.124 73.5148 202.214C72.3045 202.305 71.1029 201.949 70.1379 201.212Z" fill="#A0616A"/>
<path d="M94.4421 271.328L88.6743 220.956C88.6278 220.551 88.4384 220.175 88.1402 219.897C87.842 219.618 87.4543 219.455 87.0468 219.437C86.6392 219.418 86.2384 219.546 85.9163 219.796C85.5941 220.046 85.3716 220.403 85.2887 220.803L82.4295 234.579C82.3891 234.774 82.3224 234.962 82.2312 235.139L65.4937 267.685C65.2472 268.163 64.8341 268.536 64.3321 268.731C63.8302 268.927 63.274 268.932 62.7685 268.746L56.9487 266.601C56.6741 266.5 56.4224 266.346 56.2082 266.146C55.994 265.947 55.8216 265.707 55.701 265.441C55.5804 265.174 55.514 264.886 55.5057 264.594C55.4974 264.301 55.5473 264.01 55.6526 263.737L69.2775 228.405C69.3497 228.218 69.3885 228.02 69.3922 227.82L70.0883 190.927C70.0987 190.386 70.3073 189.868 70.6745 189.47C71.0417 189.073 71.5419 188.825 72.0803 188.772L108.238 185.245C108.557 185.214 108.88 185.253 109.183 185.359C109.486 185.466 109.763 185.637 109.993 185.861C110.223 186.086 110.401 186.358 110.515 186.658C110.629 186.959 110.676 187.28 110.653 187.601L104.579 271.237C104.536 271.793 104.286 272.312 103.878 272.691C103.47 273.07 102.935 273.282 102.378 273.284H96.6345C96.0926 273.284 95.5697 273.085 95.1654 272.724C94.761 272.363 94.5036 271.867 94.4421 271.328Z" fill="#2F2E41"/>
<path d="M93.7747 122.205C100.426 122.205 105.819 116.813 105.819 110.161C105.819 103.51 100.426 98.1174 93.7747 98.1174C87.123 98.1174 81.7308 103.51 81.7308 110.161C81.7308 116.813 87.123 122.205 93.7747 122.205Z" fill="#A0616A"/>
<path d="M104.212 128.785C103.883 128.627 103.555 128.476 103.23 128.33C99.2757 126.551 94.9179 125.859 90.6065 126.324C86.295 126.79 82.1857 128.397 78.7019 130.979C72.2874 135.757 69.1955 142.95 70.2193 150.714C72.3772 167.08 69.9065 189.279 69.65 191.49C89.449 200.594 106.819 189.148 108.361 188.084L104.212 128.785Z" fill="#E3FDFD"/>
<path d="M69.1103 191.279C68.7495 191.222 68.4087 191.076 68.1185 190.854C67.8284 190.632 67.598 190.341 67.4481 190.008L57.3417 167.615C56.963 166.778 56.7958 165.86 56.8548 164.942C56.9137 164.025 57.1971 163.136 57.6799 162.354L70.0908 142.215C70.4814 141.49 71.0826 140.9 71.8153 140.524C72.5479 140.147 73.3775 140.001 74.1947 140.106C75.0118 140.21 75.7782 140.56 76.3926 141.108C77.007 141.657 77.4406 142.379 77.6363 143.179C77.8582 144.091 77.7596 145.051 77.357 145.899L68.1763 165.178L74.2102 185.601C74.3169 185.966 74.328 186.353 74.2422 186.723C74.1565 187.094 73.9769 187.436 73.7207 187.717L71.0861 190.591C70.88 190.817 70.6291 190.997 70.3495 191.12C70.0699 191.244 69.7676 191.307 69.462 191.307C69.3442 191.307 69.2266 191.298 69.1103 191.279Z" fill="#E3FDFD"/>
<path opacity="0.2" d="M97.2439 186.599L95.3755 149.233L95.8602 149.17L104.259 188.696H99.4477C98.8815 188.696 98.3368 188.478 97.9265 188.088C97.5163 187.698 97.2718 187.165 97.2439 186.599Z" fill="black"/>
<path d="M103.9 198.522C103.426 197.979 103.078 197.338 102.879 196.645C102.68 195.952 102.635 195.224 102.748 194.512C102.861 193.8 103.129 193.121 103.532 192.524C103.935 191.927 104.465 191.425 105.083 191.054L101.5 173.901L109.966 177.254L112.071 193.029C112.625 194.109 112.763 195.354 112.46 196.529C112.157 197.705 111.433 198.728 110.426 199.405C109.418 200.082 108.198 200.366 106.995 200.204C105.792 200.041 104.691 199.443 103.9 198.522Z" fill="#A0616A"/>
<path d="M102.208 186.865L95.1327 139.695L95.126 139.651L96.4937 133.359C96.8364 131.783 97.7416 130.386 99.0401 129.429C100.338 128.472 101.941 128.021 103.548 128.16C105.155 128.299 106.656 129.019 107.771 130.185C108.885 131.351 109.537 132.883 109.603 134.495L111.727 185.876C111.748 186.434 111.558 186.98 111.194 187.403C110.83 187.827 110.32 188.097 109.766 188.161L104.634 188.731C104.551 188.74 104.468 188.745 104.385 188.745C103.857 188.745 103.346 188.555 102.947 188.21C102.547 187.865 102.285 187.387 102.208 186.865Z" fill="#E3FDFD"/>
<path d="M88.8245 121.099C87.1863 121.085 85.5855 120.608 84.2075 119.722C82.8294 118.836 81.7304 117.578 81.0377 116.093C79.9213 113.732 79.301 111.85 79.1938 110.501C78.9058 106.876 80.9541 101.18 83.6666 98.0617C86.6424 94.641 91.3525 94.1638 95.9074 93.7025C97.1519 93.5763 98.4387 93.446 99.6569 93.2566C100.702 93.0943 102.003 92.8922 103.108 93.3026C103.428 93.4197 103.72 93.6007 103.967 93.8345C104.214 94.0683 104.411 94.3501 104.546 94.6626C104.589 94.7724 104.655 94.8721 104.738 94.9557C104.822 95.0392 104.921 95.1048 105.031 95.1484C105.126 95.1847 105.227 95.201 105.328 95.1962C105.43 95.1913 105.529 95.1655 105.62 95.1204C105.805 95.0264 106.009 94.9773 106.217 94.9773C106.424 94.9773 106.629 95.0262 106.814 95.1202C106.977 95.2023 107.119 95.322 107.227 95.4693C107.335 95.6167 107.407 95.7876 107.437 95.968C107.456 96.0919 107.494 96.212 107.55 96.3241C107.646 96.4983 107.777 96.6504 107.935 96.7703C108.094 96.8902 108.276 96.9752 108.47 97.0196C108.765 97.0856 109.026 97.2573 109.204 97.5024C109.382 97.7475 109.464 98.0492 109.435 98.3507C109.362 98.9694 109.331 99.6369 109.3 100.283C109.187 102.713 109.069 105.224 106.627 105.184C106.002 105.158 105.384 105.049 104.788 104.859C103.903 104.614 103.204 104.419 102.263 105.006C100.815 105.908 100.579 107.794 100.37 109.458L100.334 109.749C100.09 111.652 99.0844 113.943 97.0508 114.134C96.4051 114.155 95.762 114.044 95.1611 113.807C94.5431 113.533 93.8573 113.451 93.1921 113.57C92.0752 113.889 91.5376 115.223 91.5838 116.376C91.6135 116.848 91.6739 117.318 91.7646 117.782C91.9291 118.518 91.9817 119.274 91.9208 120.025C91.8628 120.482 91.3379 120.783 90.269 120.972C89.7921 121.057 89.3088 121.099 88.8245 121.099Z" fill="#2F2E41"/>
</g>
<defs>
<clipPath id="clip0_13_240">
<rect width="319.451" height="285.062" fill="white"/>
</clipPath>
</defs>
</svg>
